<?xml version="1.0" encoding="UTF-8"?>
<svg width="29px" height="20px" viewBox="0 0 29 20" version="1.1" xmlns="http://www.w3.org/2000/svg" xmlns:xlink="http://www.w3.org/1999/xlink">
    <!-- Generator: Sketch 42 (36781) - http://www.bohemiancoding.com/sketch -->
    <title>Shape</title>
    <desc>Created with Sketch.</desc>
    <defs></defs>
    <g id="Page-1" stroke="none" stroke-width="1" fill="none" fill-rule="evenodd">
        <g id="Desktop-HD" transform="translate(-349.000000, -1618.000000)" fill="#005CB9">
            <g id="Group-Copy-2" transform="translate(349.000000, 1618.000000)">
                <path d="M1.31818182,0.122766102 C0.6050125,0.122766102 0,0.745105085 0,1.47869831 L0,18.4278644 C0,19.1614576 0.6050125,19.7837966 1.31818182,19.7837966 L27.6818182,19.7837966 C28.3949875,19.7837966 29,19.1614576 29,18.4278644 L29,1.47869831 C29,0.745105085 28.3949875,0.122766102 27.6818182,0.122766102 L1.31818182,0.122766102 Z M1.97727273,2.15666441 L27.0227273,2.15666441 L27.0227273,2.65456271 L14.5,12.0718983 L1.97727273,2.65456271 L1.97727273,2.15666441 Z M1.97727273,5.17569831 L8.50639205,10.0909492 L1.97727273,16.3833898 L1.97727273,5.17569831 Z M27.0227273,5.17569831 L27.0227273,16.3833898 L20.493608,10.0909492 L27.0227273,5.17569831 Z M10.1335227,11.3091864 L13.9129972,14.1587458 C14.2619815,14.4235948 14.7380185,14.4235948 15.0870028,14.1587458 L18.8664773,11.3091864 L25.550071,17.7498983 L3.44992898,17.7498983 L10.1335227,11.3091864 L10.1335227,11.3091864 Z" id="Shape"></path>
            </g>
        </g>
    </g>
</svg>
