<?xml version="1.0" encoding="UTF-8"?>
<svg width="27px" height="27px" viewBox="0 0 27 27" version="1.1" xmlns="http://www.w3.org/2000/svg" xmlns:xlink="http://www.w3.org/1999/xlink">
    <!-- Generator: Sketch 42 (36781) - http://www.bohemiancoding.com/sketch -->
    <title>Group</title>
    <desc>Created with Sketch.</desc>
    <defs></defs>
    <g id="Page-1" stroke="none" stroke-width="1" fill="none" fill-rule="evenodd">
        <g id="Group">
            <path d="M18.09,7.83 L18.09,5.7375 L15.255,5.7375 C13.77,5.7375 12.555,7.02 12.555,8.5725 L12.555,11.2725 L9.7875,11.2725 L9.7875,13.23 L12.555,13.23 L12.555,21.06 L14.9175,21.06 L14.9175,13.23 L18.09,13.23 L18.09,11.2725 L14.9175,11.2725 L14.9175,8.9775 C14.9175,8.37 15.39,7.83 15.93,7.83 L18.09,7.83 L18.09,7.83 Z" id="Shape"></path>
            <path d="M21.87,0.135 L5.67,0.135 C2.9025,0.135 0.6075,2.43 0.6075,5.1975 L0.6075,21.3975 C0.6075,24.165 2.9025,26.46 5.67,26.46 L21.87,26.46 C24.6375,26.46 26.9325,24.165 26.9325,21.3975 L26.9325,5.1975 C26.9325,2.43 24.705,0.135 21.87,0.135 Z M14.9175,8.9775 L14.9175,11.2725 L18.09,11.2725 L18.09,13.23 L14.9175,13.23 L14.9175,21.06 L12.555,21.06 L12.555,13.23 L9.7875,13.23 L9.7875,11.2725 L12.555,11.2725 L12.555,8.5725 C12.555,7.02 13.77,5.7375 15.255,5.7375 L18.09,5.7375 L18.09,7.83 L15.93,7.83 C15.39,7.83 14.9175,8.37 14.9175,8.9775 Z" id="Shape" fill="#005CB9" fill-rule="nonzero"></path>
        </g>
    </g>
</svg>