<?xml version="1.0" encoding="UTF-8"?>
<svg width="54px" height="37px" viewBox="0 0 54 37" version="1.1" xmlns="http://www.w3.org/2000/svg" xmlns:xlink="http://www.w3.org/1999/xlink">
    <!-- Generator: Sketch 42 (36781) - http://www.bohemiancoding.com/sketch -->
    <title>Group Copy</title>
    <desc>Created with Sketch.</desc>
    <defs></defs>
    <g id="Page-1" stroke="none" stroke-width="1" fill="none" fill-rule="evenodd" fill-opacity="0.05">
        <g id="Desktop-HD" transform="translate(-350.000000, -1264.000000)" fill="#FFFFFF">
            <g id="Group-Copy" transform="translate(350.000000, 1264.000000)">
                <path d="M2.45454545,0.227117288 C1.126575,0.227117288 0,1.37844441 0,2.73559186 L0,34.0915492 C0,35.4486966 1.126575,36.6000237 2.45454545,36.6000237 L51.5454545,36.6000237 C52.873425,36.6000237 54,35.4486966 54,34.0915492 L54,2.73559186 C54,1.37844441 52.873425,0.227117288 51.5454545,0.227117288 L2.45454545,0.227117288 Z M3.68181818,3.98982915 L50.3181818,3.98982915 L50.3181818,4.91094102 L27,22.3330119 L3.68181818,4.91094102 L3.68181818,3.98982915 Z M3.68181818,9.57504186 L15.8394886,18.6682559 L3.68181818,30.3092712 L3.68181818,9.57504186 Z M50.3181818,9.57504186 L50.3181818,30.3092712 L38.1605114,18.6682559 L50.3181818,9.57504186 Z M18.8693182,20.9219949 L25.9069602,26.1936797 C26.5567931,26.6836503 27.4432069,26.6836503 28.0930398,26.1936797 L35.1306818,20.9219949 L47.5759943,32.8373119 L6.42400568,32.8373119 L18.8693182,20.9219949 L18.8693182,20.9219949 Z" id="Shape"></path>
            </g>
        </g>
    </g>
</svg>