<?xml version="1.0" encoding="UTF-8"?>
<svg width="423px" height="364px" viewBox="0 0 423 364" version="1.1" xmlns="http://www.w3.org/2000/svg" xmlns:xlink="http://www.w3.org/1999/xlink">
    <!-- Generator: Sketch 41.2 (35397) - http://www.bohemiancoding.com/sketch -->
    <title>Shape Copy</title>
    <desc>Created with Sketch.</desc>
    <defs></defs>
    <g id="Page-1" stroke="none" stroke-width="1" fill="none" fill-rule="evenodd" fill-opacity="0.1">
        <g id="Artboard" transform="translate(-33.000000, -472.000000)" fill="#FFFFFF">
            <path d="M396.975907,717.945946 C384.281559,717.945946 372.539163,722.038486 362.911675,728.915135 L334.838861,700.774 C339.98628,692.997189 342.999163,683.685676 342.999163,673.675676 C342.999163,663.665676 339.98628,654.354162 334.838861,646.577351 L365.036396,616.306324 C372.794326,621.46627 382.083233,624.486486 392.068931,624.486486 C419.126,624.486486 441.138698,602.420216 441.138698,575.297297 C441.138698,548.174378 419.126,526.108108 392.068931,526.108108 C365.011861,526.108108 342.999163,548.174378 342.999163,575.297297 C342.999163,585.307297 346.012047,594.618811 351.159466,602.395622 L320.961931,632.666649 C313.204,627.506703 303.915093,624.486486 293.929396,624.486486 C284.262652,624.486486 275.268163,627.339459 267.662349,632.194432 L212.188977,574.529946 C220.334559,563.791946 225.231721,550.446919 225.231721,535.945946 C225.231721,500.687135 196.614233,472 161.441024,472 C126.267814,472 97.650326,500.687135 97.650326,535.945946 C97.650326,550.028811 102.272698,563.024595 109.99628,573.60027 L84.5388842,599.119622 C79.6809772,596.478162 74.1164656,594.972973 68.2084656,594.972973 C49.2675353,594.972973 33.8596283,610.418378 33.8596283,629.405405 C33.8596283,648.392432 49.2675353,663.837838 68.2084656,663.837838 C87.1493958,663.837838 102.557303,648.392432 102.557303,629.405405 C102.557303,623.483027 101.055768,617.904973 98.4207214,613.035243 L123.878117,587.515892 C134.428117,595.25827 147.392349,599.891892 161.441024,599.891892 C175.077512,599.891892 187.703163,595.543568 198.081419,588.209459 L253.515535,645.834595 C248.068791,653.758973 244.859628,663.345946 244.859628,673.675676 C244.859628,683.685676 247.872512,692.997189 253.019931,700.774 L222.827303,731.040108 C215.064466,725.885081 205.775559,722.864865 195.789861,722.864865 C168.732791,722.864865 146.720093,744.931135 146.720093,772.054054 C146.720093,799.176973 168.732791,821.243243 195.789861,821.243243 C222.846931,821.243243 244.859628,799.176973 244.859628,772.054054 C244.859628,762.044054 241.846745,752.732541 236.699326,744.95573 L266.891954,714.689622 C274.654791,719.844649 283.943698,722.864865 293.929396,722.864865 C303.915093,722.864865 313.204,719.844649 320.961931,714.684703 L349.034745,742.825838 C342.174791,752.476757 338.092186,764.24773 338.092186,776.972973 C338.092186,809.521459 364.506442,836 396.975907,836 C429.445373,836 455.859628,809.521459 455.859628,776.972973 C455.859628,744.424486 429.445373,717.945946 396.975907,717.945946 Z M392.068931,545.783784 C408.306117,545.783784 421.510791,559.020595 421.510791,575.297297 C421.510791,591.574 408.306117,604.810811 392.068931,604.810811 C375.831745,604.810811 362.62707,591.574 362.62707,575.297297 C362.62707,559.020595 375.831745,545.783784 392.068931,545.783784 Z M68.2084656,644.162162 C60.092326,644.162162 53.4875353,637.541297 53.4875353,629.405405 C53.4875353,621.269514 60.092326,614.648649 68.2084656,614.648649 C76.3246051,614.648649 82.9293958,621.269514 82.9293958,629.405405 C82.9293958,637.541297 76.3246051,644.162162 68.2084656,644.162162 Z M117.278233,535.945946 C117.278233,511.53827 137.092605,491.675676 161.441024,491.675676 C185.789442,491.675676 205.603814,511.53827 205.603814,535.945946 C205.603814,560.353622 185.789442,580.216216 161.441024,580.216216 C137.092605,580.216216 117.278233,560.353622 117.278233,535.945946 Z M195.789861,801.567568 C179.552675,801.567568 166.348,788.330757 166.348,772.054054 C166.348,755.777351 179.552675,742.540541 195.789861,742.540541 C212.027047,742.540541 225.231721,755.777351 225.231721,772.054054 C225.231721,788.330757 212.027047,801.567568 195.789861,801.567568 Z M264.487535,673.675676 C264.487535,657.398973 277.69221,644.162162 293.929396,644.162162 C310.166582,644.162162 323.371256,657.398973 323.371256,673.675676 C323.371256,689.952378 310.166582,703.189189 293.929396,703.189189 C277.69221,703.189189 264.487535,689.952378 264.487535,673.675676 Z M396.975907,816.324324 C375.331233,816.324324 357.720093,798.670324 357.720093,776.972973 C357.720093,755.275622 375.331233,737.621622 396.975907,737.621622 C418.620582,737.621622 436.231721,755.275622 436.231721,776.972973 C436.231721,798.670324 418.620582,816.324324 396.975907,816.324324 Z" id="Shape-Copy"></path>
        </g>
    </g>
</svg>