<?xml version="1.0" encoding="UTF-8"?>
<svg width="32px" height="22px" viewBox="0 0 32 22" version="1.1" xmlns="http://www.w3.org/2000/svg" xmlns:xlink="http://www.w3.org/1999/xlink">
    <!-- Generator: Sketch 42 (36781) - http://www.bohemiancoding.com/sketch -->
    <title>twitter copy</title>
    <desc>Created with Sketch.</desc>
    <defs></defs>
    <g id="Page-1" stroke="none" stroke-width="1" fill="none" fill-rule="evenodd">
        <g id="Desktop-HD" transform="translate(-345.000000, -1617.000000)" fill="#005CB9">
            <g id="twitter-copy" transform="translate(345.000000, 1617.000000)">
                <path d="M27.8356923,9.76036922 C29.6146651,9.61840022 30.8006469,8.80207843 31.2541106,7.70181862 C30.6262379,8.09223339 28.6379741,8.51814041 27.5566377,8.12772564 L27.3822286,7.38238836 C26.5450649,4.29456246 23.7196375,1.77461259 20.719801,2.09404285 L21.4523192,1.81010484 C21.7662556,1.70362808 23.7196375,1.38419782 23.4057011,0.674352783 C23.1615284,0.0709845034 20.7895646,1.13575206 20.3709828,1.27772106 C20.9639737,1.06476755 21.9057829,0.674352783 22.0104283,5.32907052e-15 C21.103501,0.141969007 20.2314555,0.567876028 19.5687009,1.17124431 C19.8128737,0.887306293 19.9872828,0.567876028 20.0221646,0.21295351 C17.6502009,1.77461259 16.2549281,4.89793074 15.103828,7.95026439 C14.2317825,7.06295809 13.4295007,6.38860531 12.7318643,5.99819054 C10.7436005,4.93342299 8.40651859,3.79767093 4.67416386,2.37798087 C4.5695184,3.62020968 5.2671548,5.28834551 7.36006399,6.38860531 C6.90660034,6.31762081 6.06943666,6.45958981 5.4415639,6.63705107 C5.72061846,8.05674114 6.59266396,9.2634777 8.96462771,9.83135373 C7.88329129,9.90233823 7.32518217,10.150784 6.80195488,10.6831678 C7.29030035,11.6769508 8.51116405,12.8481951 10.6738369,12.5997494 C8.26699131,13.6645169 9.69714593,15.6165908 11.6505278,15.3326527 C8.30187313,18.8463857 3.03471833,18.5979399 0,15.652083 C7.91817311,26.6191888 25.0800285,22.1471651 27.6612832,11.5704741 C29.5797833,11.5704741 30.6960015,10.8961213 31.3936379,10.1152917 C30.2774197,10.292753 28.6728559,10.1152917 27.8356923,9.76036922 Z" id="Shape"></path>
            </g>
        </g>
    </g>
</svg>