<?xml version="1.0" encoding="utf-8"?>
<!-- Generator: Adobe Illustrator 21.0.0, SVG Export Plug-In . SVG Version: 6.00 Build 0)  -->
<svg version="1.1" id="Layer_1" xmlns="http://www.w3.org/2000/svg" xmlns:xlink="http://www.w3.org/1999/xlink" x="0px" y="0px"
	 viewBox="0 0 288 288" style="enable-background:new 0 0 288 288;" xml:space="preserve">
<style type="text/css">
	.st0{fill:#0072C3;}
	.st1{fill:#4F90D1;}
	.st2{fill:#2582CB;}
	.st3{fill:#005CB9;}
	.st4{fill:#006BC0;}
	.st5{fill:#007AC7;}
	.st6{fill:#0064BC;}
	.st7{fill:#C2D3ED;}
	.st8{fill:#FBFEFF;}
	.st9{fill:#FFFFFF;}
</style>
<g>
	<polygon class="st0" points="196.2,245.4 180.4,239.9 177.7,246.7 163.4,282.8 147.3,286.3 130.2,258.6 123.9,259.8 76.6,265.8 
		49.4,251.8 36.6,232.2 13.2,220.3 12.1,129.7 12.1,88.3 13.2,19.1 47.6,19.1 99.6,18.2 126.4,34.8 146.8,42 154,45.7 159.7,48.6 
		183.4,38.6 203.4,40.3 226.8,21.6 274.9,1.2 274.9,99.8 274.9,112.5 268.9,120 266.8,141.2 256.2,183.7 249,193.1 240.4,204.1 
		206,217.3 196.2,245.4 	"/>
	<g>
		<polygon class="st1" points="142.5,101.6 218.8,82.2 186.4,151 		"/>
		<polygon class="st2" points="218.8,82.2 186.4,151 249,193.1 		"/>
		<polygon class="st0" points="240.4,204.1 206,217.3 196.2,245.4 186.4,151 249,193.1 		"/>
		<path class="st3" d="M244,90.5"/>
		<polygon class="st0" points="274.9,99.8 274.9,112.5 268.9,120 266.8,141.2 256.2,183.7 249,193.1 218.8,82.2 		"/>
		<polygon class="st3" points="274.9,1.2 274.9,99.8 218.8,82.2 		"/>
		<polygon class="st2" points="203.4,40.3 142.5,101.6 218.8,82.2 		"/>
		<polygon class="st4" points="226.8,21.6 203.4,40.3 218.8,82.2 274.9,1.2 		"/>
		<polygon class="st5" points="93.9,58.4 142.5,101.6 203.4,40.3 183.4,38.6 159.7,48.6 154,45.7 		"/>
		<polygon class="st4" points="69.4,135.1 93.9,58.4 142.5,101.6 		"/>
		<polygon class="st2" points="82,185.2 69.4,135.1 142.5,164.8 		"/>
		<polygon class="st0" points="142.5,164.8 69.4,135.1 142.5,101.6 		"/>
		<polygon class="st5" points="142.5,101.6 186.4,151 142.5,164.8 		"/>
		<polygon class="st6" points="186.4,151 142.5,164.8 123.9,259.8 130.2,258.6 147.3,286.3 163.4,282.8 177.7,246.7 180.4,239.9 
			196.2,245.4 		"/>
		<polygon class="st5" points="82,185.2 142.5,164.8 123.9,259.8 		"/>
		<polygon class="st3" points="49.4,251.8 76.6,265.8 123.9,259.8 82,185.2 		"/>
		<polygon class="st4" points="13.2,220.3 36.6,232.2 49.4,251.8 82,185.2 		"/>
		<polygon class="st5" points="69.4,135.1 82,185.2 13.2,220.3 		"/>
		<polygon class="st0" points="12.1,129.7 13.2,220.3 69.4,135.1 		"/>
		<polygon class="st6" points="12.1,88.3 12.1,129.7 69.4,135.1 93.9,58.4 		"/>
		<polygon class="st3" points="93.9,58.4 12.1,88.3 13.2,19.1 47.6,19.1 		"/>
		<polygon class="st4" points="99.6,18.2 47.6,19.1 93.9,58.4 154,45.7 146.8,42 126.4,34.8 		"/>
		<g>
			<polygon class="st0" points="142.5,164.8 123.9,259.8 186.4,151 			"/>
		</g>
	</g>
	<path class="st7" d="M36.4,66.4v50.2c0,27.7,22.5,50.2,50.2,50.2s50.2-22.5,50.2-50.2V66.4H36.4z"/>
	<path class="st8" d="M136.9,66.4v50.2c0,27.7-22.5,50.2-50.2,50.2V66.4H136.9z"/>
	<polygon class="st7" points="149.4,66.4 174.5,116.6 149.4,166.8 199.6,166.8 224.7,116.6 199.6,66.4 	"/>
	<polygon class="st9" points="249.8,66.4 224.7,116.6 249.8,166.8 199.6,166.8 174.5,116.6 199.6,66.4 	"/>
</g>
</svg>
