<?xml version="1.0" encoding="UTF-8"?>
<svg width="46px" height="46px" viewBox="0 0 46 46" version="1.1" xmlns="http://www.w3.org/2000/svg" xmlns:xlink="http://www.w3.org/1999/xlink">
    <!-- Generator: Sketch 48.2 (47327) - http://www.bohemiancoding.com/sketch -->
    <title>ux-white2</title>
    <desc>Created with Sketch.</desc>
    <defs></defs>
    <g id="secondary-page" stroke="none" stroke-width="1" fill="none" fill-rule="evenodd" transform="translate(-190.000000, -15.000000)">
        <g id="ux-white2" transform="translate(190.000000, 15.000000)" fill-rule="nonzero">
            <polygon id="Shape" fill="#FFFFFF" points="32.219029 39.4083489 29.4648378 38.5159219 28.9907831 39.620685 26.4836345 45.4491571 23.6526598 46 20.674795 41.5378646 19.5697801 41.734814 11.2905146 42.7041745 6.52326003 40.4392561 4.28986138 37.2819106 0.193627985 35.3585764 0 20.7412363 0 14.0603425 0.193627985 2.88346267 6.20944916 2.88346267 15.3133029 2.74498261 20.0037739 5.42534118 23.5792147 6.59165106 24.8444735 7.18249933 25.8426591 7.65025421 29.9856303 6.04080813 33.4842877 6.31776826 37.5838595 3.29582553 46 0 46 15.9190527 46 17.953171 44.9550766 19.1717956 44.5845127 22.5876371 42.7216779 29.453171 41.4731113 30.9672197 39.9641483 32.7489965 33.9316351 34.8785122 32.219029 39.4083489"></polygon>
            <path d="M3,10 L3,18.5 C3,23.1944204 7.02943725,27 12,27 C16.9705627,27 21,23.1944204 21,18.5 L21,10 L3,10 Z" id="Shape" fill="#1F2255"></path>
            <path d="M22,10 L22,18.5 C22,23.1944204 18.418278,27 14,27 L14,10 L22,10 Z" id="Shape" fill="#225EAC"></path>
            <polygon id="Shape" fill="#1F2255" points="24 10 28.3344304 18.5016138 24 27 32.6655696 27 37 18.5016138 32.6655696 10"></polygon>
            <polygon id="Shape" fill="#225EAC" points="41 10 36.6655696 18.5016138 41 27 32.3311392 27 28 18.5016138 32.3311392 10"></polygon>
        </g>
    </g>
</svg>