<?xml version="1.0" standalone="no"?>
<!DOCTYPE svg PUBLIC "-//W3C//DTD SVG 20010904//EN"
 "http://www.w3.org/TR/2001/REC-SVG-20010904/DTD/svg10.dtd">
<svg version="1.0" xmlns="http://www.w3.org/2000/svg"
 width="16.000000pt" height="16.000000pt" viewBox="0 0 16.000000 16.000000"
 preserveAspectRatio="xMidYMid meet">
<metadata>
Created by potrace 1.11, written by Peter Selinger 2001-2013
</metadata>
<g transform="translate(0.000000,16.000000) scale(0.002428,-0.002428)"
fill="#000000" stroke="none">
<path d="M5625 6086 l-520 -222 -253 -203 -254 -203 -101 7 c-56 4 -109 9
-118 10 -8 2 -63 6 -121 10 l-105 7 -254 -107 -254 -107 -145 72 c-86 43 -234
104 -365 150 l-220 78 -294 182 -294 182 -236 -6 c-130 -3 -553 -8 -941 -12
-388 -4 -706 -8 -708 -9 -10 -8 -17 -911 -17 -2075 0 -1461 8 -2307 23 -2322
5 -5 119 -65 253 -132 231 -117 246 -126 278 -172 18 -27 83 -125 145 -218
l111 -168 155 -80 c85 -44 218 -112 295 -152 77 -40 147 -72 155 -71 8 1 40 5
70 9 47 6 367 46 483 61 20 3 54 7 75 10 20 2 75 9 122 16 47 6 101 13 120 15
102 12 162 20 229 34 30 5 58 7 61 3 4 -5 87 -138 185 -298 98 -160 179 -292
181 -294 2 -3 73 10 157 28 83 17 164 34 178 37 21 4 31 17 54 77 86 221 318
807 330 834 l14 32 138 -49 c76 -26 151 -53 167 -59 16 -7 33 -8 37 -4 4 4 23
55 43 113 20 58 67 193 104 300 l68 194 341 131 c187 71 357 136 376 144 20 8
49 31 65 50 115 145 305 396 312 414 23 54 239 950 245 1017 4 41 8 86 10 100
2 14 7 61 11 105 3 44 8 87 10 95 1 8 3 27 3 42 1 17 25 56 66 109 l65 82 0
1219 c0 670 -3 1218 -7 1217 -5 0 -242 -100 -528 -223z"/>
</g>
</svg>
